<?xml version="1.0" encoding="utf-8"?>
<!-- Generator: Adobe Illustrator 23.0.1, SVG Export Plug-In . SVG Version: 6.00 Build 0)  -->
<svg version="1.1" id="Layer_1" xmlns="http://www.w3.org/2000/svg" xmlns:xlink="http://www.w3.org/1999/xlink" x="0px" y="0px"
	 viewBox="0 0 841.89 595.28" style="enable-background:new 0 0 841.89 595.28;" xml:space="preserve">
<style type="text/css">
	.st0{fill:#BE1E2D;stroke:#000000;stroke-miterlimit:10;}
	.st1{fill:#006838;stroke:#000000;stroke-miterlimit:10;}
	.st2{opacity:0;fill:#FFFFFF;stroke:#000000;stroke-miterlimit:10;}
</style>
<path class="st0" d="M745.73,527.56H90.52c-8.96,0-16.23-7.27-16.23-16.23V116.95c0-8.96,7.27-16.23,16.23-16.23h655.21
	c8.96,0,16.23,7.27,16.23,16.23v394.39C761.96,520.3,754.69,527.56,745.73,527.56z"/>
<path class="st1" d="M712.9,498.23H121.71c-8.96,0-16.23-7.27-16.23-16.23V146.28c0-8.96,7.27-16.23,16.23-16.23H712.9
	c8.96,0,16.23,7.27,16.23,16.23V482C729.13,490.96,721.86,498.23,712.9,498.23z"/>
<path class="st2" d="M581.76,160.58H252.85c-7.63,0-13.82-6.19-13.82-13.82V83.18c0-7.63,6.19-13.82,13.82-13.82h328.91
	c7.63,0,13.82,6.19,13.82,13.82v63.58C595.58,154.4,589.39,160.58,581.76,160.58z"/>
</svg>
